# xmcd CD database file
#
# Track frame offsets:
#	183
#	16823
#	35940
#	55160
#	80583
#	98640
#	120015
#	138915
#	160815
#	185990
#	200228
#	217223
#	230943
#
# Disc length: 3314 seconds
#
# Revision: 2
# Processed by: cddbd v1.5.1PL0 Copyright (c) Steve Scherf et al.
# Submitted via: CDex 1.51
#
DISCID=be0cf00d
DTITLE=Bandari - Reflections CD1
DYEAR=2000
DGENRE=New Age
TTITLE0=Dark Side of the Sun
TTITLE1=Brain Ticket
TTITLE2=Visions
TTITLE3=Air Mallet
TTITLE4=Time Drifters
TTITLE5=Wire
TTITLE6=Madness
TTITLE7=Baroque
TTITLE8=Venice
TTITLE9=Past Time
TTITLE10=Theme of Universe
TTITLE11=New Morning
TTITLE12=Octopus
EXTD=YEAR: 2000
EXTT0=
EXTT1=
EXTT2=
EXTT3=
EXTT4=
EXTT5=
EXTT6=
EXTT7=
EXTT8=
EXTT9=
EXTT10=
EXTT11=
EXTT12=
PLAYORDER=
